# xmcd CD database file
#
# Track frame offsets:
#	225
#	12651
#	30452
#	45239
#	62296
#	75194
#	92233
#	103877
#	117866
#	133937
#	147889
#	164422
#	176417
#	192118
#	207058
#
# Disc length: 2928 seconds
#
# Revision: 0
# Processed by: cddbd v1.5.2PL0 Copyright (c) Steve Scherf et al.
# Submitted via: CDex 1.79
#
DISCID=be0b6d0f
DTITLE=Big Al Downing - Classic Collection [CD2)
DYEAR=1997
DGENRE=Country
TTITLE0=Darlene
TTITLE1=Midnight Lace
TTITLE2=T.V. Women
TTITLE3=Mama Was A Preacher (demo)
TTITLE4=Daddy Played The Banjo
TTITLE5=Touch Me
TTITLE6=The Onion Song
TTITLE7=Let`s Think About Love
TTITLE8=You Don`t Belong To Daddy
TTITLE9=You`re Leavin` 
TTITLE10=Bring It On Home
TTITLE11=The Best Of Families
TTITLE12=We Can Only Say Goodbye
TTITLE13=Gator Man (demo)
TTITLE14=Give Me A Minute (demo)
EXTD=YEAR: 1997
EXTT0=
EXTT1=
EXTT2=
EXTT3=
EXTT4=
EXTT5=
EXTT6=
EXTT7=
EXTT8=
EXTT9=
EXTT10=
EXTT11=
EXTT12=
EXTT13=
EXTT14=
PLAYORDER=
